<mxfile host="app.diagrams.net" modified="2024-03-20T17:34:07.811Z" agent="Mozilla/5.0 (Windows NT 10.0; Win64; x64) AppleWebKit/537.36 (KHTML, like Gecko) Chrome/123.0.0.0 Safari/537.36" etag="p1isZjEfKuypd22WjzGy" version="24.0.7" type="device">
  <diagram name="Pagina-1" id="Cri5lZAct5IUcrDjzn9Q">
    <mxGraphModel dx="3703" dy="1114" grid="1" gridSize="10" guides="1" tooltips="1" connect="1" arrows="1" fold="1" page="1" pageScale="1" pageWidth="827" pageHeight="1169" math="0" shadow="0">
      <root>
        <mxCell id="0" />
        <mxCell id="1" parent="0" />
        <mxCell id="ySnA4TqFlo8cVLgcnPQg-24" style="edgeStyle=orthogonalEdgeStyle;rounded=0;orthogonalLoop=1;jettySize=auto;html=1;exitX=0;exitY=0.25;exitDx=0;exitDy=0;entryX=1;entryY=0.25;entryDx=0;entryDy=0;" edge="1" parent="1" source="XJqEKC-tWInfkEq41GbP-1" target="ySnA4TqFlo8cVLgcnPQg-5">
          <mxGeometry relative="1" as="geometry" />
        </mxCell>
        <mxCell id="ySnA4TqFlo8cVLgcnPQg-27" style="edgeStyle=orthogonalEdgeStyle;rounded=0;orthogonalLoop=1;jettySize=auto;html=1;exitX=0.75;exitY=0;exitDx=0;exitDy=0;entryX=0.75;entryY=1;entryDx=0;entryDy=0;" edge="1" parent="1" source="XJqEKC-tWInfkEq41GbP-1" target="XJqEKC-tWInfkEq41GbP-5">
          <mxGeometry relative="1" as="geometry" />
        </mxCell>
        <mxCell id="ySnA4TqFlo8cVLgcnPQg-30" style="edgeStyle=orthogonalEdgeStyle;rounded=0;orthogonalLoop=1;jettySize=auto;html=1;exitX=0.25;exitY=1;exitDx=0;exitDy=0;entryX=0.25;entryY=0;entryDx=0;entryDy=0;" edge="1" parent="1" source="XJqEKC-tWInfkEq41GbP-1" target="XJqEKC-tWInfkEq41GbP-2">
          <mxGeometry relative="1" as="geometry" />
        </mxCell>
        <mxCell id="XJqEKC-tWInfkEq41GbP-1" value="Library" style="rounded=0;whiteSpace=wrap;html=1;" parent="1" vertex="1">
          <mxGeometry x="80" y="320" width="120" height="60" as="geometry" />
        </mxCell>
        <mxCell id="ySnA4TqFlo8cVLgcnPQg-29" style="edgeStyle=orthogonalEdgeStyle;rounded=0;orthogonalLoop=1;jettySize=auto;html=1;exitX=0.75;exitY=0;exitDx=0;exitDy=0;entryX=0.75;entryY=1;entryDx=0;entryDy=0;" edge="1" parent="1" source="XJqEKC-tWInfkEq41GbP-2" target="XJqEKC-tWInfkEq41GbP-1">
          <mxGeometry relative="1" as="geometry" />
        </mxCell>
        <mxCell id="ySnA4TqFlo8cVLgcnPQg-50" style="edgeStyle=orthogonalEdgeStyle;rounded=0;orthogonalLoop=1;jettySize=auto;html=1;exitX=0.25;exitY=1;exitDx=0;exitDy=0;entryX=0;entryY=0.75;entryDx=0;entryDy=0;" edge="1" parent="1" source="XJqEKC-tWInfkEq41GbP-2" target="ySnA4TqFlo8cVLgcnPQg-41">
          <mxGeometry relative="1" as="geometry" />
        </mxCell>
        <mxCell id="XJqEKC-tWInfkEq41GbP-2" value="API" style="rounded=0;whiteSpace=wrap;html=1;" parent="1" vertex="1">
          <mxGeometry x="80" y="450" width="120" height="60" as="geometry" />
        </mxCell>
        <mxCell id="ySnA4TqFlo8cVLgcnPQg-3" style="edgeStyle=orthogonalEdgeStyle;rounded=0;orthogonalLoop=1;jettySize=auto;html=1;entryX=0;entryY=0.75;entryDx=0;entryDy=0;" edge="1" parent="1" target="XJqEKC-tWInfkEq41GbP-4">
          <mxGeometry relative="1" as="geometry">
            <mxPoint x="580" y="365" as="targetPoint" />
            <mxPoint x="460" y="365" as="sourcePoint" />
          </mxGeometry>
        </mxCell>
        <mxCell id="ySnA4TqFlo8cVLgcnPQg-11" style="edgeStyle=orthogonalEdgeStyle;rounded=0;orthogonalLoop=1;jettySize=auto;html=1;exitX=0;exitY=0.25;exitDx=0;exitDy=0;entryX=1;entryY=0.25;entryDx=0;entryDy=0;" edge="1" parent="1" source="XJqEKC-tWInfkEq41GbP-4" target="ySnA4TqFlo8cVLgcnPQg-1">
          <mxGeometry relative="1" as="geometry">
            <mxPoint x="480" y="335" as="targetPoint" />
          </mxGeometry>
        </mxCell>
        <mxCell id="XJqEKC-tWInfkEq41GbP-4" value="Connected&amp;nbsp;Client" style="rounded=0;whiteSpace=wrap;html=1;" parent="1" vertex="1">
          <mxGeometry x="610" y="320" width="120" height="60" as="geometry" />
        </mxCell>
        <mxCell id="ySnA4TqFlo8cVLgcnPQg-28" style="edgeStyle=orthogonalEdgeStyle;rounded=0;orthogonalLoop=1;jettySize=auto;html=1;exitX=0.25;exitY=1;exitDx=0;exitDy=0;entryX=0.25;entryY=0;entryDx=0;entryDy=0;" edge="1" parent="1" source="XJqEKC-tWInfkEq41GbP-5" target="XJqEKC-tWInfkEq41GbP-1">
          <mxGeometry relative="1" as="geometry" />
        </mxCell>
        <mxCell id="ySnA4TqFlo8cVLgcnPQg-37" style="edgeStyle=orthogonalEdgeStyle;rounded=0;orthogonalLoop=1;jettySize=auto;html=1;exitX=0.75;exitY=0;exitDx=0;exitDy=0;entryX=0;entryY=0.75;entryDx=0;entryDy=0;" edge="1" parent="1" source="XJqEKC-tWInfkEq41GbP-5" target="ySnA4TqFlo8cVLgcnPQg-18">
          <mxGeometry relative="1" as="geometry" />
        </mxCell>
        <mxCell id="XJqEKC-tWInfkEq41GbP-5" value="Mvc" style="rounded=0;whiteSpace=wrap;html=1;" parent="1" vertex="1">
          <mxGeometry x="80" y="200" width="120" height="60" as="geometry" />
        </mxCell>
        <mxCell id="ySnA4TqFlo8cVLgcnPQg-9" style="edgeStyle=orthogonalEdgeStyle;rounded=0;orthogonalLoop=1;jettySize=auto;html=1;exitX=0.5;exitY=0;exitDx=0;exitDy=0;entryX=0.5;entryY=1;entryDx=0;entryDy=0;" edge="1" parent="1" source="ySnA4TqFlo8cVLgcnPQg-1" target="ySnA4TqFlo8cVLgcnPQg-8">
          <mxGeometry relative="1" as="geometry" />
        </mxCell>
        <mxCell id="ySnA4TqFlo8cVLgcnPQg-31" style="edgeStyle=orthogonalEdgeStyle;rounded=0;orthogonalLoop=1;jettySize=auto;html=1;exitX=0.5;exitY=1;exitDx=0;exitDy=0;entryX=1;entryY=0.5;entryDx=0;entryDy=0;" edge="1" parent="1" source="ySnA4TqFlo8cVLgcnPQg-1" target="XJqEKC-tWInfkEq41GbP-2">
          <mxGeometry relative="1" as="geometry" />
        </mxCell>
        <mxCell id="ySnA4TqFlo8cVLgcnPQg-1" value="Websocket/SignalR" style="rounded=0;whiteSpace=wrap;html=1;" vertex="1" parent="1">
          <mxGeometry x="340" y="320" width="120" height="60" as="geometry" />
        </mxCell>
        <mxCell id="ySnA4TqFlo8cVLgcnPQg-2" value="Message received" style="text;html=1;whiteSpace=wrap;overflow=hidden;rounded=0;" vertex="1" parent="1">
          <mxGeometry x="470" y="360" width="110" height="40" as="geometry" />
        </mxCell>
        <mxCell id="ySnA4TqFlo8cVLgcnPQg-26" style="edgeStyle=orthogonalEdgeStyle;rounded=0;orthogonalLoop=1;jettySize=auto;html=1;exitX=1;exitY=0.75;exitDx=0;exitDy=0;entryX=0;entryY=0.75;entryDx=0;entryDy=0;" edge="1" parent="1" source="ySnA4TqFlo8cVLgcnPQg-5" target="XJqEKC-tWInfkEq41GbP-1">
          <mxGeometry relative="1" as="geometry" />
        </mxCell>
        <mxCell id="ySnA4TqFlo8cVLgcnPQg-5" value="Database" style="rounded=0;whiteSpace=wrap;html=1;" vertex="1" parent="1">
          <mxGeometry x="-170" y="320" width="120" height="60" as="geometry" />
        </mxCell>
        <mxCell id="ySnA4TqFlo8cVLgcnPQg-8" value="Connected Client" style="rounded=0;whiteSpace=wrap;html=1;" vertex="1" parent="1">
          <mxGeometry x="610" y="180" width="120" height="60" as="geometry" />
        </mxCell>
        <mxCell id="ySnA4TqFlo8cVLgcnPQg-12" value="Message sent" style="text;html=1;whiteSpace=wrap;overflow=hidden;rounded=0;" vertex="1" parent="1">
          <mxGeometry x="500" y="310" width="80" height="40" as="geometry" />
        </mxCell>
        <mxCell id="ySnA4TqFlo8cVLgcnPQg-14" value="Message received" style="text;html=1;whiteSpace=wrap;overflow=hidden;rounded=0;" vertex="1" parent="1">
          <mxGeometry x="480" y="260" width="110" height="40" as="geometry" />
        </mxCell>
        <mxCell id="ySnA4TqFlo8cVLgcnPQg-38" style="edgeStyle=orthogonalEdgeStyle;rounded=0;orthogonalLoop=1;jettySize=auto;html=1;exitX=0;exitY=0.25;exitDx=0;exitDy=0;entryX=0.25;entryY=0;entryDx=0;entryDy=0;" edge="1" parent="1" source="ySnA4TqFlo8cVLgcnPQg-18" target="XJqEKC-tWInfkEq41GbP-5">
          <mxGeometry relative="1" as="geometry" />
        </mxCell>
        <mxCell id="ySnA4TqFlo8cVLgcnPQg-18" value="connecting client" style="rounded=0;whiteSpace=wrap;html=1;" vertex="1" parent="1">
          <mxGeometry x="340" y="60" width="120" height="60" as="geometry" />
        </mxCell>
        <mxCell id="ySnA4TqFlo8cVLgcnPQg-33" value="CUD Request" style="text;html=1;whiteSpace=wrap;overflow=hidden;rounded=0;" vertex="1" parent="1">
          <mxGeometry x="250" y="490" width="110" height="40" as="geometry" />
        </mxCell>
        <mxCell id="ySnA4TqFlo8cVLgcnPQg-39" value="Request" style="text;html=1;whiteSpace=wrap;overflow=hidden;rounded=0;" vertex="1" parent="1">
          <mxGeometry x="210" y="50" width="110" height="40" as="geometry" />
        </mxCell>
        <mxCell id="ySnA4TqFlo8cVLgcnPQg-40" value="Response view/data" style="text;html=1;whiteSpace=wrap;overflow=hidden;rounded=0;" vertex="1" parent="1">
          <mxGeometry x="210" y="110" width="120" height="40" as="geometry" />
        </mxCell>
        <mxCell id="ySnA4TqFlo8cVLgcnPQg-49" style="edgeStyle=orthogonalEdgeStyle;rounded=0;orthogonalLoop=1;jettySize=auto;html=1;exitX=0;exitY=0.25;exitDx=0;exitDy=0;entryX=0.75;entryY=1;entryDx=0;entryDy=0;" edge="1" parent="1" source="ySnA4TqFlo8cVLgcnPQg-41" target="XJqEKC-tWInfkEq41GbP-2">
          <mxGeometry relative="1" as="geometry" />
        </mxCell>
        <mxCell id="ySnA4TqFlo8cVLgcnPQg-41" value="Connected&amp;nbsp;Client" style="rounded=0;whiteSpace=wrap;html=1;" vertex="1" parent="1">
          <mxGeometry x="610" y="570" width="120" height="60" as="geometry" />
        </mxCell>
        <mxCell id="ySnA4TqFlo8cVLgcnPQg-44" value="Request" style="text;html=1;whiteSpace=wrap;overflow=hidden;rounded=0;" vertex="1" parent="1">
          <mxGeometry x="340" y="565" width="110" height="40" as="geometry" />
        </mxCell>
        <mxCell id="ySnA4TqFlo8cVLgcnPQg-45" value="Response data" style="text;html=1;whiteSpace=wrap;overflow=hidden;rounded=0;" vertex="1" parent="1">
          <mxGeometry x="340" y="610" width="110" height="40" as="geometry" />
        </mxCell>
        <mxCell id="ySnA4TqFlo8cVLgcnPQg-51" value="User" style="rounded=0;whiteSpace=wrap;html=1;" vertex="1" parent="1">
          <mxGeometry x="-340" y="320" width="120" height="60" as="geometry" />
        </mxCell>
        <mxCell id="ySnA4TqFlo8cVLgcnPQg-53" value="Private conversation" style="rounded=0;whiteSpace=wrap;html=1;" vertex="1" parent="1">
          <mxGeometry x="-650" y="240" width="120" height="60" as="geometry" />
        </mxCell>
        <mxCell id="ySnA4TqFlo8cVLgcnPQg-54" value="Groups" style="rounded=0;whiteSpace=wrap;html=1;" vertex="1" parent="1">
          <mxGeometry x="-650" y="410" width="120" height="60" as="geometry" />
        </mxCell>
        <mxCell id="ySnA4TqFlo8cVLgcnPQg-55" value="Messages" style="rounded=0;whiteSpace=wrap;html=1;" vertex="1" parent="1">
          <mxGeometry x="-970" y="320" width="120" height="60" as="geometry" />
        </mxCell>
        <mxCell id="ySnA4TqFlo8cVLgcnPQg-60" value="" style="endArrow=none;html=1;rounded=0;exitX=0;exitY=0.5;exitDx=0;exitDy=0;entryX=1;entryY=0.5;entryDx=0;entryDy=0;" edge="1" parent="1" source="ySnA4TqFlo8cVLgcnPQg-5" target="ySnA4TqFlo8cVLgcnPQg-51">
          <mxGeometry width="50" height="50" relative="1" as="geometry">
            <mxPoint x="-540" y="360" as="sourcePoint" />
            <mxPoint x="-490" y="310" as="targetPoint" />
          </mxGeometry>
        </mxCell>
        <mxCell id="ySnA4TqFlo8cVLgcnPQg-65" value="Join table" style="rounded=0;whiteSpace=wrap;html=1;" vertex="1" parent="1">
          <mxGeometry x="-490" y="240" width="120" height="60" as="geometry" />
        </mxCell>
        <mxCell id="ySnA4TqFlo8cVLgcnPQg-66" value="Join table" style="rounded=0;whiteSpace=wrap;html=1;" vertex="1" parent="1">
          <mxGeometry x="-490" y="410" width="120" height="60" as="geometry" />
        </mxCell>
        <mxCell id="ySnA4TqFlo8cVLgcnPQg-67" value="Join table" style="rounded=0;whiteSpace=wrap;html=1;" vertex="1" parent="1">
          <mxGeometry x="-800" y="320" width="120" height="60" as="geometry" />
        </mxCell>
        <mxCell id="ySnA4TqFlo8cVLgcnPQg-68" value="" style="endArrow=none;html=1;rounded=0;exitX=1;exitY=0.5;exitDx=0;exitDy=0;entryX=0;entryY=0.5;entryDx=0;entryDy=0;" edge="1" parent="1" source="ySnA4TqFlo8cVLgcnPQg-66" target="ySnA4TqFlo8cVLgcnPQg-51">
          <mxGeometry width="50" height="50" relative="1" as="geometry">
            <mxPoint x="-370" y="450" as="sourcePoint" />
            <mxPoint x="-320" y="400" as="targetPoint" />
          </mxGeometry>
        </mxCell>
        <mxCell id="ySnA4TqFlo8cVLgcnPQg-70" value="" style="endArrow=none;html=1;rounded=0;exitX=0;exitY=0.5;exitDx=0;exitDy=0;entryX=1;entryY=0.5;entryDx=0;entryDy=0;" edge="1" parent="1" source="ySnA4TqFlo8cVLgcnPQg-51" target="ySnA4TqFlo8cVLgcnPQg-65">
          <mxGeometry width="50" height="50" relative="1" as="geometry">
            <mxPoint x="-350" y="450" as="sourcePoint" />
            <mxPoint x="-350" y="280" as="targetPoint" />
          </mxGeometry>
        </mxCell>
        <mxCell id="ySnA4TqFlo8cVLgcnPQg-71" value="" style="endArrow=none;html=1;rounded=0;exitX=1;exitY=0.5;exitDx=0;exitDy=0;entryX=0;entryY=0.5;entryDx=0;entryDy=0;" edge="1" parent="1" source="ySnA4TqFlo8cVLgcnPQg-53" target="ySnA4TqFlo8cVLgcnPQg-65">
          <mxGeometry width="50" height="50" relative="1" as="geometry">
            <mxPoint x="-350" y="460" as="sourcePoint" />
            <mxPoint x="-320" y="370" as="targetPoint" />
          </mxGeometry>
        </mxCell>
        <mxCell id="ySnA4TqFlo8cVLgcnPQg-72" value="" style="endArrow=none;html=1;rounded=0;exitX=0;exitY=0.5;exitDx=0;exitDy=0;entryX=1;entryY=0.5;entryDx=0;entryDy=0;" edge="1" parent="1" source="ySnA4TqFlo8cVLgcnPQg-66" target="ySnA4TqFlo8cVLgcnPQg-54">
          <mxGeometry width="50" height="50" relative="1" as="geometry">
            <mxPoint x="-340" y="470" as="sourcePoint" />
            <mxPoint x="-310" y="380" as="targetPoint" />
          </mxGeometry>
        </mxCell>
        <mxCell id="ySnA4TqFlo8cVLgcnPQg-73" value="" style="endArrow=none;html=1;rounded=0;exitX=0;exitY=0.5;exitDx=0;exitDy=0;entryX=1;entryY=0.5;entryDx=0;entryDy=0;" edge="1" parent="1" source="ySnA4TqFlo8cVLgcnPQg-54" target="ySnA4TqFlo8cVLgcnPQg-67">
          <mxGeometry width="50" height="50" relative="1" as="geometry">
            <mxPoint x="-330" y="480" as="sourcePoint" />
            <mxPoint x="-300" y="390" as="targetPoint" />
          </mxGeometry>
        </mxCell>
        <mxCell id="ySnA4TqFlo8cVLgcnPQg-74" value="" style="endArrow=none;html=1;rounded=0;exitX=0;exitY=0.5;exitDx=0;exitDy=0;entryX=1;entryY=0.5;entryDx=0;entryDy=0;" edge="1" parent="1" source="ySnA4TqFlo8cVLgcnPQg-53" target="ySnA4TqFlo8cVLgcnPQg-67">
          <mxGeometry width="50" height="50" relative="1" as="geometry">
            <mxPoint x="-320" y="490" as="sourcePoint" />
            <mxPoint x="-290" y="400" as="targetPoint" />
          </mxGeometry>
        </mxCell>
        <mxCell id="ySnA4TqFlo8cVLgcnPQg-75" value="" style="endArrow=none;html=1;rounded=0;exitX=1;exitY=0.5;exitDx=0;exitDy=0;entryX=0;entryY=0.5;entryDx=0;entryDy=0;" edge="1" parent="1" source="ySnA4TqFlo8cVLgcnPQg-55" target="ySnA4TqFlo8cVLgcnPQg-67">
          <mxGeometry width="50" height="50" relative="1" as="geometry">
            <mxPoint x="-310" y="500" as="sourcePoint" />
            <mxPoint x="-280" y="410" as="targetPoint" />
          </mxGeometry>
        </mxCell>
      </root>
    </mxGraphModel>
  </diagram>
</mxfile>
